<?xml version="1.0" encoding="utf-8"?>
<!-- Generator: Adobe Illustrator 25.0.1, SVG Export Plug-In . SVG Version: 6.00 Build 0)  -->
<svg version="1.1" id="Capa_1" xmlns="http://www.w3.org/2000/svg" xmlns:xlink="http://www.w3.org/1999/xlink" x="0px" y="0px"
	 viewBox="0 0 512 512" style="enable-background:new 0 0 512 512;" xml:space="preserve">
<g id="kIz4XG.tif">
	<g>
		<path d="M310.2,368.9c-0.8,32.3-4.2,64.2-14.5,95.1c-4.8,14.5-11.3,28.1-22.7,38.8c-13.2,12.4-24.2,12.5-37.6-0.3
			c-14.2-13.6-20.9-31.4-25.8-49.8c-9.4-35.4-12-71.7-11.4-108.1c0.6-30.4,26.1-54.7,55.8-54.9c29-0.2,53.4,22.2,55.9,52
			C310.8,350.6,310.2,359.8,310.2,368.9z"/>
		<path d="M197.9,217.1c-0.1-32,26.5-57.9,59.1-57.5c28.4,0.3,54,26.9,54.3,56.5c0.3,31-25.7,57.2-56.9,57.2
			C223.6,273.4,198,248,197.9,217.1z"/>
		<g>
			<path d="M487,207.4C475.3,87.2,366.8-5.2,243.4,0.2C121.7,5.6,23.4,108.6,23.8,231.8c0.3,122.5,91,202.7,159.4,219.8
				c-2.1-10.4-3.9-20.9-5.4-31.4c-2.7-3.5-6.6-6.3-12-8.9C89.1,374.5,43.9,286.6,57.2,202.9c18.4-115,124.9-188.8,240-166.3
				C403.8,57.4,475.9,168.2,451.8,274c-15,65.5-53.1,112.6-113.5,141.9c-2.3,1.1-5.3,1.5-7,3.6c-1.5,11.4-3.4,22.7-5.7,34
				C404.3,433.2,500.2,342.6,487,207.4z"/>
			<path d="M402.2,199.1C385,127.7,320.4,79.8,245.1,82.1c-68.5,2.1-129.8,56-142.5,125.1c-13.4,73,30.6,136.5,70.3,155.4
				c-0.5-12.8-0.6-25.7-0.5-38.5c-0.6-0.9-1.3-1.8-2.3-2.7c-22.8-22.5-34.7-49.8-36.9-81.8c-5.2-76.9,70-141.7,145.1-124.6
				c46.7,10.7,78.8,38.4,92.1,84.5c13.6,46.9,1.8,88.2-33.2,122.6c-0.3,0.3-0.6,0.5-0.9,0.8c0.3,10.4-0.3,20.8-0.3,31.2
				c-0.1,2.8-0.2,5.7-0.3,8.5C381.7,337.7,419.3,270.4,402.2,199.1z"/>
		</g>
	</g>
</g>
</svg>
