<?xml version="1.0" encoding="utf-8"?>
<!-- Generator: Adobe Illustrator 25.0.1, SVG Export Plug-In . SVG Version: 6.00 Build 0)  -->
<svg version="1.1"
	 id="Warstwa_1" xmlns:cc="http://creativecommons.org/ns#" xmlns:dc="http://purl.org/dc/elements/1.1/" xmlns:rdf="http://www.w3.org/1999/02/22-rdf-syntax-ns#"
	 xmlns="http://www.w3.org/2000/svg" xmlns:xlink="http://www.w3.org/1999/xlink" x="0px" y="0px" viewBox="0 0 24 24"
	 style="enable-background:new 0 0 24 24;" xml:space="preserve">
<style type="text/css">
	.st0{fill:#4AA748;}
	.st1{fill:#2ECC71;}
	.st2{fill:#ECF0F1;}
</style>
<g transform="translate(0 -1028.4)">
	<path class="st0" d="M23.3,1041c0,6.2-5,11.3-11.3,11.3c-6.2,0-11.3-5-11.3-11.3c0-6.2,5-11.3,11.3-11.3
		C18.2,1029.7,23.3,1034.7,23.3,1041z"/>
	<path class="st1" d="M23.3,1039.8c0,6.2-5,11.3-11.3,11.3c-6.2,0-11.3-5-11.3-11.3c0-6.2,5-11.3,11.3-11.3
		C18.2,1028.6,23.3,1033.6,23.3,1039.8z"/>
	<path class="st0" d="M16.5,1036.5l-6.8,6.8l-2.8-2.8l-2.4,2.4l2.8,2.8l2.3,2.3l0.1,0.1l9.2-9.1L16.5,1036.5z"/>
	<path class="st2" d="M16.5,1035.3l-6.8,6.8l-2.8-2.8l-2.4,2.4l2.8,2.8l2.3,2.3l0.1,0.1l9.2-9.1L16.5,1035.3z"/>
</g>
</svg>
