<?xml version="1.0" encoding="utf-8"?>
<!-- Generator: Adobe Illustrator 25.0.1, SVG Export Plug-In . SVG Version: 6.00 Build 0)  -->
<svg version="1.1" id="Capa_1" xmlns="http://www.w3.org/2000/svg" xmlns:xlink="http://www.w3.org/1999/xlink" x="0px" y="0px"
	 viewBox="0 0 512 512" style="enable-background:new 0 0 512 512;" xml:space="preserve">
<g>
	<path d="M224,256c0-31,0-62,0-92.5c0-17.6,11.2-29.9,28.3-32.1c16.5-2.1,33.6,11.2,34.7,27.8c0,1.6,0,3.2,0,4.8
		c0,61.5,0,122.9,0,184.4c0,17.1-10.7,29.9-26.7,32.6c-18.7,3.2-36.3-11.2-36.8-30.5c-0.5-25.7,0-51.8,0-77.5
		C224,267.2,224,261.9,224,256z"/>
	<path d="M337.6,321.7c0-19.2,0-37.9,0-57.2c0-16,12.3-29.4,27.2-31c17.1-2.1,31.5,8,35.2,24.1c0.5,2.1,1.1,4.8,1.1,6.9
		c0,38.5,0,77,0,114.9c0,16-12.3,29.4-27.7,31c-17.1,1.6-31.5-8-35.2-24.1c-0.5-3.2-1.1-6.4-1.1-9.6
		C337.6,358.1,337.6,339.9,337.6,321.7L337.6,321.7z"/>
	<path d="M174.4,190.8c0,19.2,0,37.9,0,57.2c0,16-12.3,29.4-27.7,31c-16.5,1.6-31.5-8-35.2-24.1c-0.5-2.7-1.1-4.8-1.1-7.5
		c0-37.9,0-75.4,0-113.3c0-23,22.9-38.5,43.8-29.4c12.3,5.3,19.7,15,19.7,28.9C174.9,152.3,174.4,171.6,174.4,190.8z"/>
	<path d="M63.9,256c0,7.5,1.1,15,0,22.4c-2.1,16.6-16.5,27.8-34.2,27.3c-16-1.1-28.8-13.9-29.3-31c-0.5-12.3-0.5-24.6,0-36.9
		c1.1-18.2,15.5-31.5,33.6-30.5c17.1,0.5,30.4,15,30.4,32.6C64.4,244.8,64.4,250.1,63.9,256L63.9,256z"/>
	<path d="M447.6,256c0-5.9,0-11.2,0-17.1c0-18.2,13.9-32.1,30.9-32.6c18.1-0.5,32.6,13.4,33.1,31.5c0.5,11.8,0.5,24.1,0,35.8
		c-0.5,18.2-14.9,31.5-33.1,31c-17.1-0.5-30.4-14.4-30.9-32.1C447.6,267.2,447.6,261.9,447.6,256z"/>
	<path d="M401.1,151.8c0,5.9,0,11.8,0,18.2c-0.5,17.6-14.4,31-32,31c-17.1,0-30.9-13.4-31.5-31c-0.5-12.3-0.5-24.6,0-36.9
		c0.5-17.6,14.4-30.5,31.5-31c17.6,0,31.5,13.4,32,30.5C401.1,139,401.1,145.4,401.1,151.8L401.1,151.8z"/>
	<path d="M174.4,360.2c0,6.4,0,12.3,0,18.7c-0.5,17.6-14.4,31-31.5,31.5c-17.6,0-31.5-13.4-32-31c0-12.3,0-24.6,0-36.3
		c0.5-17.6,14.4-31,32-31c17.1,0,30.9,13.4,31.5,31C174.9,348.5,174.4,354.3,174.4,360.2z"/>
	<path d="M288,49.2c0,5.9,0,11.8,0,18.2c-0.5,17.6-14.4,31.5-31.5,31.5c-17.1,0-31.5-13.9-32-31c0-12.3,0-24.6,0-36.3
		c0.5-17.6,14.9-31.5,32-31.5c17.1,0,30.9,13.9,31.5,31C288,36.9,288,43.3,288,49.2z"/>
	<path d="M224,462.3c0-5.9,0-11.8,0-17.6c0.5-18.2,14.4-32.1,32-31.5c17.1,0,31.5,13.9,31.5,31.5c0,11.8,0,24.1,0,35.8
		c-0.5,17.6-14.4,31.5-31.5,31.5c-17.1,0-31.5-13.9-32-32.1C224,474.6,224,468.2,224,462.3z"/>
</g>
</svg>
