<svg id="Warstwa_1" height="100%" data-name="Warstwa 1" xmlns="http://www.w3.org/2000/svg" viewBox="0 0 408.63 408.62"><path d="M0,216.18v-24c.62-5.25,1.14-10.5,1.87-15.73,5.61-40,21.2-75.69,48.05-105.91C96.45,18.22,155.12-5,224.83.91c39.8,3.38,75.87,17.77,106.63,43.34,62.35,51.83,87,118.38,73.66,198.26-6.82,40.87-26.16,75.91-55.29,105.32-30.55,30.84-67.26,50.25-110.14,57.64-7.71,1.33-15.51,2.12-23.26,3.15h-24c-5.39-.64-10.8-1.19-16.18-1.95C136,401,100.34,384.88,69.82,357.94,33.89,326.21,11.41,286.72,3.14,239.38,1.8,231.7,1,223.92,0,216.18Zm123.38-89c-5.07,20.54-9.41,55.36-8,64.81h76.88V132ZM216.62,192H294a314.5,314.5,0,0,0-8.33-64.26l-69.08,4.34ZM89.69,192q4.4-34.71,8.68-68.48c-14.75-3.66-30-7.3-45.09-11.31-3-.79-4.13-.09-5.54,2.38a178.42,178.42,0,0,0-20.41,55C25.92,177,25.24,184.45,24.2,192Zm220.77,91.76,49.69,11.69a176.49,176.49,0,0,0,24.23-78.94H319.11C316.2,239.17,313.34,261.4,310.46,283.77Zm8.73-91.86h65.23q-3-42.9-24.25-78.84l-49.53,11C313.47,146.56,316.3,169,319.19,191.91ZM285.56,280A317.07,317.07,0,0,0,294,216.4H216.65v58.82Zm-93.38-4.79V216.49h-77.3a313.23,313.23,0,0,0,8.4,63ZM89.8,216.4H24.89a6,6,0,0,0-.25,1.27,173.78,173.78,0,0,0,22.75,75.17c.51.9,2.88,1.39,4.17,1.1,12.68-2.82,25.32-5.87,38-8.78,3.16-.73,6.39-1.18,8.83-1.62C95.48,260.83,92.66,238.77,89.8,216.4ZM216.58,107.87,279,104.15c-1.92-5.08-3.37-9.33-5.12-13.46-7.39-17.48-16.29-34-29.78-47.72-7.72-7.84-16.43-14.19-27.48-17.3ZM130.4,303c6.43,21.26,20.76,49.16,38,64.41,7,6.23,14.65,11.31,23.89,13.89v-82ZM192.22,25.7c-11.3,3.21-20.18,9.76-28,17.91-16.22,16.94-26,37.53-34,60l62,4.14ZM216.6,382c35.5-14.66,49.09-45.7,62.43-78.47l-62.43-4.08ZM62.42,315.47c21,26.08,45.94,44.86,76.42,56.26-15-19.66-25.12-41.62-33.06-65.35Zm207.65,56.28c30.07-11.31,54.83-29.72,75.64-55.32L302.94,307C295.06,330.42,284.92,352.21,270.07,371.75ZM345.78,92C325,66.59,300.57,48.26,271,36.84c14.5,19.35,24.59,40.86,32.21,64.05Zm-208-55.09C108.67,48.24,84.41,66.13,64,90.94l42,9.17C113.59,77,123.65,56,137.8,36.89Z"/></svg>